# xmcd
#
# Track frame offsets: 
#        150
#        17422
#        33247
#        48707
#        61819
#        77998
#        94041
#        105037
#        120607
#        135983
#        153597
#        174420
#        184460
#        203118
#        216919
#        229807
#
# Disc length: 3234 seconds
#
# Revision: 3
# Processed by: cddbd v1.4PL0 Copyright (c) Steve Scherf et al.
# Submitted via: ExactAudioCopy v0.95a3
#
DISCID=ce0ca010
DTITLE=Various Artist - In The Beginning (a songwriter's tribute to Garth Bro
DTITLE=oks)
DYEAR=2000
DGENRE=Country
TTITLE0=Garth Brooks and Pat Alger - The Thunder Rolls
TTITLE1=Garth Brooks and Kim Williams - A New Way to Fly
TTITLE2=Garth Brooks, Larry Bastian and Pat Alger - Unanswered Prayers
TTITLE3=Tony Arata - Face to Face
TTITLE4=Garth Brooks and Kent Blazy - If Tomorrow Never Comes
TTITLE5=Larry Bastian - Rodeo
TTITLE6=Dewayne Blackwell - Mr. Blue
TTITLE7=Garth Brooks and Victoria Shaw - The River
TTITLE8=Garth Brooks, Kim Williams and Kent Blazy - Cold Shoulder
TTITLE9=Garth Brooks and Stephanie Davis - We Shall Be Free
TTITLE10=Larry Bastian and Ed Berghoff - Cowboy Bill
TTITLE11=Garth Brooks and Kim Williams - Papa Loved Mama
TTITLE12=Stephanie Davis - Wolves
TTITLE13=Dewayne Blackwell and Earl Lee - Friends in Low Places
TTITLE14=Tony Arata - The Dance
TTITLE15=Dewayne Blackwell and Earl Lee - Pains
EXTD=YEAR: 2000 ID3G: 2
EXTT0=
EXTT1=
EXTT2=
EXTT3=
EXTT4=
EXTT5=
EXTT6=
EXTT7=
EXTT8=
EXTT9=
EXTT10=
EXTT11=
EXTT12=
EXTT13=
EXTT14=
EXTT15=
PLAYORDER=
